<svg preserveAspectRatio="none" overflow="visible" style="display: block;" width="53" height="53" viewBox="0 0 53 53" fill="none" xmlns="http://www.w3.org/2000/svg">
<g id="Group">
<path id="Vector" d="M7.05 51.5C4 51.5 1.5 49 1.5 45.95C1.5 42.9 4 40.4 7.05 40.4M7.05 51.5C8.45 51.5 9.85 50.925 10.95 49.825C10.95 49.55 11.225 49.275 11.5 49C12.05 48.175 12.325 47.05 12.325 45.95V7.05C12.325 6.225 12.6 5.375 12.875 4.825C12.875 4.55 13.15 4.55 13.15 4.275C14.25 2.6 15.925 1.5 18.15 1.5C21.2 1.5 23.7 4 23.7 7.05C23.7 10.1 21.2 12.6 18.15 12.6H40.375V45.95C40.375 49 37.875 51.5 34.825 51.5H7.05ZM23.725 7.05C23.725 10.1 21.225 12.6 18.175 12.6H45.95C49 12.6 51.5 10.1 51.5 7.05C51.5 4 49 1.5 45.95 1.5H18.175C21.225 1.5 23.725 4 23.725 7.05Z" stroke="#C6F135" stroke-width="3" stroke-linecap="round" stroke-linejoin="round"/>
</g>
</svg>
