<svg preserveAspectRatio="none" overflow="visible" style="display: block;" width="52.9124" height="53.0048" viewBox="0 0 52.9124 53.0048" fill="none" xmlns="http://www.w3.org/2000/svg">
<g id="Group">
<path id="Vector" d="M41.4941 14.4C41.3441 14.375 41.1692 14.375 41.0192 14.4C37.5692 14.275 34.8191 11.45 34.8191 7.95C34.8191 4.375 37.6942 1.5 41.2692 1.5C44.8442 1.5 47.7192 4.4 47.7192 7.95C47.6942 11.45 44.9441 14.275 41.4941 14.4Z" stroke="#C6F135" stroke-width="3" stroke-linecap="round" stroke-linejoin="round"/>
<path id="Vector_2" d="M38.9186 32.6005C42.3436 33.1755 46.1187 32.5755 48.7687 30.8005C52.2936 28.4505 52.2936 24.6005 48.7687 22.2505C46.0936 20.4754 42.2686 19.8754 38.8436 20.4754" stroke="#C6F135" stroke-width="3" stroke-linecap="round" stroke-linejoin="round"/>
<path id="Vector_3" d="M11.4188 14.4C11.5688 14.375 11.7438 14.375 11.8938 14.4C15.3438 14.275 18.0939 11.45 18.0939 7.95C18.0939 4.375 15.2188 1.5 11.6438 1.5C8.06885 1.5 5.19385 4.4 5.19385 7.95C5.21885 11.45 7.96885 14.275 11.4188 14.4Z" stroke="#C6F135" stroke-width="3" stroke-linecap="round" stroke-linejoin="round"/>
<path id="Vector_4" d="M13.9937 32.6005C10.5687 33.1755 6.79375 32.5755 4.14375 30.8005C0.61875 28.4505 0.61875 24.6005 4.14375 22.2505C6.81875 20.4754 10.6438 19.8754 14.0688 20.4754" stroke="#C6F135" stroke-width="3" stroke-linecap="round" stroke-linejoin="round"/>
<path id="Vector_5" d="M26.4941 33.0743C26.3441 33.0493 26.1691 33.0493 26.0191 33.0743C22.5691 32.9493 19.8191 30.1243 19.8191 26.6243C19.8191 23.0492 22.6941 20.1743 26.2691 20.1743C29.8441 20.1743 32.7191 23.0742 32.7191 26.6243C32.6941 30.1243 29.9441 32.9743 26.4941 33.0743Z" stroke="#C6F135" stroke-width="3" stroke-linecap="round" stroke-linejoin="round"/>
<path id="Vector_6" d="M19.2194 40.9485C15.6944 43.2985 15.6944 47.1485 19.2194 49.4985C23.2194 52.1735 29.7694 52.1735 33.7694 49.4985C37.2944 47.1485 37.2944 43.2985 33.7694 40.9485C29.7944 38.2985 23.2194 38.2985 19.2194 40.9485Z" stroke="#C6F135" stroke-width="3" stroke-linecap="round" stroke-linejoin="round"/>
</g>
</svg>
